<svg width="249" height="248" viewBox="0 0 249 248" fill="none" xmlns="http://www.w3.org/2000/svg">
<path d="M142.026 40.2415C140.096 39.8312 138.474 39.0637 137.159 37.9391C135.875 36.7939 134.987 35.392 134.495 33.7334C134.002 32.0747 133.967 30.2542 134.388 28.2718C134.815 26.2634 135.591 24.6017 136.715 23.2868C137.84 21.9718 139.221 21.0523 140.86 20.5281C142.524 20.0094 144.321 19.9552 146.251 20.3655C148.207 20.7813 149.827 21.5618 151.111 22.707C152.394 23.8522 153.282 25.2541 153.774 26.9127C154.293 28.5769 154.339 30.4133 153.912 32.4217C153.491 34.4041 152.705 36.05 151.554 37.3594C150.429 38.6743 149.048 39.5938 147.41 40.118C145.777 40.6161 143.983 40.6573 142.026 40.2415ZM142.825 36.4854C144.572 36.8569 146.087 36.5927 147.369 35.6928C148.682 34.7725 149.533 33.3993 149.921 31.5735C150.315 29.7215 150.099 28.108 149.273 26.733C148.474 25.3635 147.2 24.4931 145.453 24.1216C143.731 23.7557 142.214 24.0329 140.9 24.9533C139.619 25.8531 138.781 27.229 138.387 29.081C137.994 30.9329 138.196 32.5436 138.996 33.9131C139.827 35.262 141.103 36.1195 142.825 36.4854Z" fill="white"/>
<path d="M166.006 27.0332L164.735 32.2472L158.943 45.2561L155.289 43.6291L163.229 25.7967L166.006 27.0332ZM163.52 33.5014L162.822 32.7089L164.01 30.0414L164.518 29.7859C164.956 29.4558 165.54 29.1611 166.269 28.9016C167.032 28.6287 167.843 28.4789 168.702 28.4524C169.571 28.4015 170.371 28.5388 171.102 28.8642C171.467 29.0269 171.797 29.2031 172.092 29.3928C172.412 29.5934 172.63 29.7925 172.746 29.9903L171.282 33.279L170.149 32.7747C168.492 32.0371 167.172 31.756 166.189 31.9314C165.217 32.0824 164.328 32.6057 163.52 33.5014Z" fill="white"/>
<path d="M174.61 51.1368L178.38 32.8134L181.778 35.2821L178.448 51.5026L174.61 51.1368ZM164.543 56.2822L190.451 41.5832L193.848 44.0519L167.941 58.7509L164.543 56.2822Z" fill="white"/>
<path d="M195.762 69.2687L193.027 71.7311L182.937 60.5244L185.255 58.4368L203.534 57.1572L203.139 59.289L194.869 50.1038L197.604 47.6414L207.426 58.5507L205.108 60.6384L186.802 61.8883L186.448 58.9241L195.762 69.2687Z" fill="white"/>
<path d="M197.679 80.1022C196.919 78.7858 196.497 77.5209 196.412 76.3074C196.327 75.0938 196.565 73.9864 197.127 72.985C197.724 71.9933 198.623 71.1508 199.824 70.4575C200.933 69.8175 202.061 69.5049 203.209 69.5196C204.38 69.521 205.492 69.8485 206.547 70.502C207.602 71.1555 208.503 72.1289 209.249 73.4222C210.183 75.0388 210.56 76.5454 210.381 77.942C210.238 79.3484 209.645 80.6145 208.602 81.7404L207.482 79.8005L211.812 77.3005C212.528 76.8872 213.046 76.2647 213.366 75.4331C213.687 74.6014 213.494 73.5736 212.787 72.3496C212.414 71.703 211.92 71.0338 211.305 70.3419C210.726 69.6598 210.012 69.0097 209.162 68.3917L211.23 65.8124C212.238 66.4926 213.151 67.2741 213.969 68.1569C214.787 69.0397 215.475 69.9661 216.035 70.9361C216.875 72.391 217.303 73.7452 217.319 74.9987C217.334 76.2522 217.025 77.3699 216.391 78.3518C215.78 79.3204 214.92 80.1246 213.812 80.7646L202.484 87.3046L201.044 84.8105L203.627 82.1645L205.207 83.7004C203.604 84.0714 202.15 83.9257 200.844 83.2634C199.561 82.5878 198.506 81.534 197.679 80.1022ZM201.122 78.9457C201.709 79.9619 202.413 80.6484 203.235 81.0052C204.08 81.3488 204.93 81.2739 205.784 80.7805C206.662 80.2739 207.152 79.5754 207.253 78.6852C207.355 77.795 207.113 76.8419 206.526 75.8257C205.94 74.8096 205.235 74.1231 204.413 73.7662C203.592 73.4093 202.742 73.4842 201.864 73.9909C201.01 74.4842 200.52 75.1827 200.395 76.0862C200.293 76.9764 200.536 77.9296 201.122 78.9457Z" fill="white"/>
<path d="M209.476 114.853C209.334 113.501 209.511 112.128 210.009 110.735C210.508 109.369 211.483 108.18 212.932 107.17L215.239 109.984C214.335 110.83 213.693 111.608 213.312 112.319C212.957 113.026 212.836 113.91 212.947 114.971C213.037 115.82 213.317 116.447 213.789 116.854C214.29 117.284 214.859 117.465 215.495 117.398C215.919 117.354 216.278 117.195 216.571 116.923C216.867 116.678 217.119 116.262 217.325 115.678C217.558 115.09 217.753 114.265 217.91 113.203C218.213 111.24 218.721 109.699 219.435 108.578C220.148 107.457 221.393 106.804 223.17 106.617C224.231 106.505 225.227 106.669 226.158 107.107C227.089 107.546 227.872 108.241 228.509 109.193C229.145 110.145 229.536 111.311 229.681 112.69C229.853 114.334 229.656 115.776 229.089 117.015C228.549 118.252 227.85 119.25 226.991 120.011L224.402 117.186C224.84 116.765 225.247 116.172 225.623 115.409C226.025 114.643 226.169 113.716 226.054 112.628C225.985 111.965 225.735 111.375 225.305 110.857C224.875 110.339 224.329 110.115 223.666 110.185C223.003 110.254 222.486 110.563 222.114 111.112C221.772 111.684 221.514 112.677 221.341 114.089C221.03 116.481 220.474 118.216 219.676 119.292C218.904 120.365 217.788 120.978 216.33 121.131C215.057 121.265 213.921 121.049 212.923 120.484C211.955 119.942 211.163 119.167 210.548 118.16C209.961 117.175 209.604 116.073 209.476 114.853Z" fill="white"/>
<path d="M209.48 131.578C209.639 130.067 210.041 128.795 210.685 127.763C211.33 126.732 212.174 125.976 213.216 125.496C214.283 125.045 215.505 124.892 216.884 125.036C218.157 125.17 219.254 125.58 220.174 126.267C221.12 126.956 221.828 127.875 222.297 129.024C222.766 130.173 222.923 131.49 222.767 132.975C222.572 134.831 221.991 136.272 221.026 137.297C220.084 138.35 218.86 139.026 217.354 139.324L217.588 137.096L222.56 137.619C223.382 137.705 224.168 137.506 224.916 137.022C225.664 136.537 226.112 135.592 226.259 134.187C226.337 133.444 226.331 132.612 226.24 131.691C226.173 130.799 225.977 129.853 225.653 128.854L228.842 127.983C229.258 129.126 229.537 130.295 229.68 131.489C229.823 132.684 229.835 133.838 229.718 134.952C229.543 136.623 229.093 137.97 228.368 138.993C227.644 140.017 226.737 140.739 225.647 141.161C224.583 141.585 223.415 141.731 222.142 141.597L209.134 140.23L209.435 137.365L213.08 136.743L213.455 138.914C211.94 138.272 210.85 137.3 210.182 135.996C209.541 134.695 209.307 133.223 209.48 131.578ZM212.945 132.667C212.823 133.833 212.989 134.803 213.444 135.575C213.926 136.349 214.657 136.788 215.638 136.891C216.646 136.997 217.453 136.72 218.059 136.06C218.664 135.399 219.028 134.486 219.151 133.319C219.274 132.152 219.107 131.183 218.652 130.411C218.197 129.639 217.466 129.2 216.458 129.094C215.477 128.991 214.67 129.268 214.038 129.926C213.432 130.586 213.068 131.5 212.945 132.667Z" fill="white"/>
<path d="M205.116 152.614C205.644 150.99 206.533 149.849 207.785 149.191C209.053 148.565 210.689 148.578 212.693 149.229L225.513 153.395L225.741 153.469L229.691 155.551L228.69 158.633L211.381 153.009C210.671 152.778 210.08 152.783 209.61 153.022C209.131 153.287 208.801 153.699 208.62 154.257C208.48 154.688 208.382 155.077 208.325 155.423C208.269 155.769 208.237 156.081 208.231 156.359L204.693 155.21C204.699 154.847 204.73 154.451 204.785 154.02C204.833 153.615 204.943 153.146 205.116 152.614ZM223.169 149.479L226.668 150.616L223.22 161.23L219.72 160.092L223.169 149.479Z" fill="white"/>
<path d="M198.024 168.42L200.024 164.956L216.929 174.716L214.929 178.18L198.024 168.42ZM222.425 177.197C223.095 177.583 223.524 178.093 223.713 178.725C223.912 179.394 223.811 180.075 223.411 180.768C223.025 181.438 222.492 181.854 221.813 182.016C221.158 182.192 220.495 182.087 219.825 181.7C219.179 181.327 218.756 180.805 218.557 180.136C218.381 179.481 218.487 178.818 218.874 178.148C219.274 177.455 219.801 177.021 220.457 176.845C221.123 176.706 221.779 176.823 222.425 177.197Z" fill="white"/>
<path d="M196.693 201.369L187.112 182.838L189.655 180.014L209.353 187.309L206.382 190.609L191.476 184.507L191.824 184.121L199.611 198.129L196.693 201.369Z" fill="white"/>
<path d="M175.687 192.323C176.916 191.43 178.13 190.877 179.328 190.666C180.526 190.455 181.653 190.576 182.707 191.029C183.756 191.52 184.688 192.326 185.503 193.448C186.255 194.484 186.684 195.573 186.789 196.716C186.91 197.881 186.701 199.022 186.161 200.139C185.621 201.256 184.748 202.254 183.539 203.131C182.029 204.229 180.57 204.761 179.163 204.729C177.749 204.734 176.428 204.277 175.199 203.357L177.011 202.04L179.95 206.085C180.436 206.754 181.109 207.204 181.97 207.436C182.831 207.668 183.832 207.368 184.976 206.538C185.58 206.099 186.194 205.537 186.818 204.853C187.436 204.207 188.007 203.429 188.533 202.519L191.315 204.306C190.743 205.38 190.062 206.37 189.269 207.275C188.477 208.18 187.627 208.962 186.721 209.621C185.362 210.608 184.06 211.175 182.815 211.321C181.57 211.468 180.426 211.277 179.383 210.749C178.356 210.243 177.466 209.472 176.714 208.436L169.026 197.855L171.356 196.162L174.257 198.454L172.895 200.186C172.358 198.631 172.351 197.169 172.874 195.801C173.411 194.454 174.349 193.295 175.687 192.323ZM177.197 195.626C176.247 196.316 175.638 197.088 175.369 197.943C175.116 198.819 175.279 199.656 175.859 200.455C176.455 201.274 177.201 201.688 178.097 201.697C178.993 201.705 179.915 201.364 180.864 200.675C181.814 199.985 182.423 199.213 182.692 198.358C182.961 197.503 182.798 196.666 182.202 195.846C181.622 195.048 180.876 194.634 179.964 194.604C179.069 194.596 178.146 194.937 177.197 195.626Z" fill="white"/>
<path d="M138.527 218.808L150.265 216.313L151.047 219.99L139.309 222.485L138.527 218.808Z" fill="white"/>
<path d="M106.706 207.759C108.636 208.169 110.258 208.936 111.573 210.061C112.857 211.206 113.745 212.608 114.237 214.267C114.73 215.925 114.765 217.746 114.344 219.728C113.917 221.737 113.141 223.398 112.017 224.713C110.892 226.028 109.511 226.948 107.873 227.472C106.208 227.991 104.411 228.045 102.481 227.634C100.525 227.219 98.9048 226.438 97.6215 225.293C96.3383 224.148 95.4503 222.746 94.9578 221.087C94.4391 219.423 94.3932 217.587 94.8201 215.578C95.2415 213.596 96.0275 211.95 97.1783 210.641C98.3029 209.326 99.6843 208.406 101.322 207.882C102.955 207.384 104.749 207.343 106.706 207.759ZM105.907 211.515C104.16 211.143 102.645 211.407 101.363 212.307C100.05 213.228 99.1991 214.601 98.811 216.427C98.4173 218.279 98.6333 219.892 99.4587 221.267C100.258 222.636 101.532 223.507 103.279 223.878C105.001 224.244 106.518 223.967 107.832 223.047C109.113 222.147 109.951 220.771 110.345 218.919C110.738 217.067 110.536 215.456 109.736 214.087C108.905 212.738 107.629 211.881 105.907 211.515Z" fill="white"/>
<path d="M82.7261 220.967L83.9967 215.753L89.7886 202.744L93.4428 204.371L85.5033 222.203L82.7261 220.967ZM85.2119 214.499L85.9099 215.291L84.7222 217.959L84.2144 218.214C83.7756 218.544 83.1919 218.839 82.4634 219.098C81.6996 219.371 80.8886 219.521 80.0303 219.548C79.1611 219.598 78.3611 219.461 77.6303 219.136C77.2649 218.973 76.9347 218.797 76.6397 218.607C76.3203 218.407 76.1025 218.207 75.9862 218.01L77.4504 214.721L78.5832 215.225C80.2398 215.963 81.5595 216.244 82.5425 216.069C83.5146 215.918 84.4044 215.394 85.2119 214.499Z" fill="white"/>
<path d="M74.1225 196.863L70.3523 215.187L66.9544 212.718L70.2845 196.497L74.1225 196.863ZM84.1895 191.718L58.2817 206.417L54.8839 203.948L80.7917 189.249L84.1895 191.718Z" fill="white"/>
<path d="M52.97 178.731L55.7048 176.269L65.7953 187.476L63.4767 189.563L45.1979 190.843L45.5928 188.711L53.8633 197.896L51.1285 200.359L41.3057 189.449L43.6243 187.362L61.9299 186.112L62.2843 189.076L52.97 178.731Z" fill="white"/>
<path d="M51.0528 167.898C51.8128 169.214 52.2352 170.479 52.32 171.693C52.4048 172.906 52.1666 174.014 51.6055 175.015C51.0079 176.007 50.1087 176.849 48.9078 177.542C47.7993 178.182 46.6711 178.495 45.5233 178.48C44.3524 178.479 43.2396 178.152 42.1848 177.498C41.1301 176.844 40.2294 175.871 39.4827 174.578C38.5494 172.961 38.1722 171.455 38.3512 170.058C38.4938 168.652 39.0869 167.385 40.1304 166.26L41.2504 168.199L36.9202 170.699C36.2043 171.113 35.6861 171.735 35.3657 172.567C35.0453 173.399 35.2384 174.426 35.945 175.65C36.3184 176.297 36.8125 176.966 37.4275 177.658C38.0061 178.34 38.7201 178.99 39.5696 179.608L37.5023 182.188C36.4937 181.507 35.5806 180.726 34.763 179.843C33.9454 178.96 33.2566 178.034 32.6966 177.064C31.8566 175.609 31.4289 174.255 31.4134 173.001C31.3979 171.748 31.7071 170.63 32.3411 169.648C32.952 168.68 33.8117 167.875 34.9202 167.235L46.2478 160.695L47.6878 163.19L45.1048 165.836L43.5252 164.3C45.1277 163.929 46.5821 164.074 47.8882 164.737C49.1713 165.412 50.2262 166.466 51.0528 167.898ZM47.6098 169.054C47.0231 168.038 46.3188 167.352 45.4969 166.995C44.652 166.651 43.8022 166.726 42.9478 167.219C42.0702 167.726 41.5805 168.425 41.4786 169.315C41.3767 170.205 41.6191 171.158 42.2058 172.174C42.7924 173.19 43.4967 173.877 44.3186 174.234C45.1405 174.591 45.9902 174.516 46.8678 174.009C47.7222 173.516 48.212 172.817 48.3369 171.914C48.4388 171.024 48.1964 170.07 47.6098 169.054Z" fill="white"/>
<path d="M39.2559 133.147C39.398 134.499 39.2206 135.872 38.7234 137.265C38.2235 138.631 37.2491 139.82 35.8001 140.83L33.4933 138.016C34.3965 137.17 35.0387 136.392 35.4198 135.681C35.7745 134.974 35.896 134.09 35.7845 133.029C35.6953 132.18 35.4149 131.553 34.9432 131.146C34.4422 130.716 33.8734 130.535 33.2369 130.602C32.8126 130.646 32.4538 130.805 32.1607 131.077C31.8647 131.322 31.6134 131.738 31.4067 132.322C31.1735 132.91 30.9787 133.735 30.8222 134.797C30.519 136.76 30.0107 138.301 29.2973 139.422C28.5838 140.543 27.3387 141.196 25.5618 141.383C24.501 141.495 23.5051 141.331 22.5742 140.893C21.6433 140.454 20.8596 139.759 20.2233 138.807C19.587 137.855 19.1963 136.689 19.0514 135.31C18.8785 133.666 19.0756 132.224 19.6425 130.985C20.1828 129.748 20.8823 128.75 21.7408 127.989L24.3303 130.814C23.8919 131.235 23.485 131.828 23.1094 132.591C22.7073 133.358 22.5634 134.284 22.6776 135.372C22.7473 136.035 22.9971 136.625 23.4269 137.143C23.8567 137.661 24.4031 137.885 25.0662 137.815C25.7292 137.746 26.2464 137.437 26.6177 136.888C26.9598 136.316 27.2175 135.323 27.3908 133.911C27.7024 131.519 28.2575 129.784 29.0561 128.708C29.8281 127.635 30.9435 127.022 32.4021 126.869C33.6751 126.735 34.8105 126.951 35.8084 127.516C36.777 128.058 37.569 128.833 38.1844 129.84C38.7705 130.825 39.1277 131.927 39.2559 133.147Z" fill="white"/>
<path d="M39.2519 116.422C39.093 117.933 38.6912 119.205 38.0465 120.237C37.4018 121.268 36.5582 122.024 35.5156 122.504C34.4493 122.955 33.2266 123.108 31.8475 122.964C30.5745 122.83 29.4781 122.42 28.5581 121.733C27.6117 121.044 26.9039 120.125 26.4347 118.976C25.9655 117.827 25.809 116.51 25.9651 115.025C26.1602 113.169 26.7406 111.728 27.7064 110.703C28.6484 109.65 29.8724 108.974 31.3784 108.676L31.1442 110.904L26.1716 110.381C25.3495 110.295 24.5644 110.494 23.8163 110.978C23.0682 111.463 22.6203 112.408 22.4726 113.813C22.3946 114.556 22.401 115.388 22.4918 116.309C22.559 117.201 22.7545 118.147 23.0785 119.146L19.89 120.017C19.4738 118.874 19.1945 117.705 19.0519 116.511C18.9094 115.316 18.8966 114.162 19.0137 113.048C19.1893 111.377 19.6392 110.03 20.3635 109.007C21.0878 107.983 21.9949 107.261 23.085 106.839C24.1485 106.415 25.3167 106.269 26.5897 106.403L39.5981 107.77L39.297 110.635L35.652 111.257L35.2769 109.086C36.7914 109.728 37.8824 110.7 38.5498 112.004C39.1907 113.305 39.4247 114.777 39.2519 116.422ZM35.7867 115.333C35.9093 114.167 35.743 113.197 35.2879 112.425C34.8062 111.651 34.0748 111.212 33.0935 111.109C32.0857 111.003 31.279 111.28 30.6733 111.94C30.0676 112.601 29.7035 113.514 29.5808 114.681C29.4582 115.848 29.6244 116.817 30.0796 117.589C30.5347 118.361 31.2662 118.8 32.274 118.906C33.2553 119.009 34.062 118.732 34.6942 118.074C35.2998 117.414 35.664 116.5 35.7867 115.333Z" fill="white"/>
<path d="M43.6159 95.3864C43.0885 97.0095 42.1991 98.1505 40.9476 98.8094C39.6789 99.4346 38.0428 99.4217 36.0393 98.7707L23.219 94.6052L22.9908 94.531L19.041 92.4485L20.0422 89.3671L37.3514 94.9912C38.0615 95.222 38.6518 95.2175 39.1222 94.9778C39.6009 94.7127 39.9309 94.3012 40.1122 93.7433C40.2523 93.3121 40.3505 92.9235 40.4069 92.5773C40.4633 92.2311 40.4947 91.9188 40.501 91.6405L44.0389 92.79C44.0332 93.1527 44.0025 93.5493 43.9468 93.9798C43.8992 94.3849 43.789 94.8538 43.6159 95.3864ZM25.5636 98.5214L22.0637 97.3842L25.5123 86.7704L29.0122 87.9076L25.5636 98.5214Z" fill="white"/>
<path d="M50.7078 79.5797L48.7078 83.0438L31.803 73.2838L33.803 69.8197L50.7078 79.5797ZM26.3069 70.8034C25.6372 70.4167 25.2078 69.9071 25.0187 69.2745C24.82 68.6055 24.9206 67.9245 25.3206 67.2317C25.7072 66.562 26.24 66.146 26.9187 65.9836C27.5744 65.8079 28.2372 65.9134 28.9069 66.3001C29.5535 66.6734 29.9762 67.1946 30.175 67.8636C30.3507 68.5193 30.2452 69.182 29.8585 69.8517C29.4585 70.5445 28.9307 70.9788 28.275 71.1545C27.6096 71.2938 26.9535 71.1767 26.3069 70.8034Z" fill="white"/>
<path d="M52.0385 46.6307L61.6199 65.1617L59.0772 67.9856L39.3786 60.691L42.3495 57.3914L57.2557 63.4928L56.9077 63.8792L49.1211 49.8708L52.0385 46.6307Z" fill="white"/>
<path d="M73.0454 55.677C71.8157 56.5704 70.6018 57.1227 69.4038 57.3339C68.2058 57.5451 67.0795 57.4239 66.025 56.9706C64.9763 56.4799 64.0444 55.6737 63.2294 54.5518C62.477 53.5163 62.0481 52.427 61.9428 51.2839C61.8218 50.1193 62.0312 48.9783 62.5709 47.8611C63.1106 46.7438 63.9845 45.7463 65.1926 44.8685C66.7028 43.7713 68.1617 43.2387 69.5694 43.2708C70.9829 43.2656 72.3041 43.723 73.533 44.6431L71.7208 45.9598L68.7819 41.9147C68.296 41.2459 67.6227 40.7956 66.7621 40.5639C65.9015 40.3321 64.8996 40.6316 63.7561 41.4623C63.1521 41.9012 62.5381 42.4626 61.9144 43.1466C61.2965 43.7932 60.7246 44.5713 60.1987 45.4808L57.4175 43.6943C57.9886 42.6202 58.6703 41.6305 59.4628 40.7251C60.2553 39.8196 61.1046 39.0378 62.0107 38.3795C63.3699 37.392 64.672 36.825 65.917 36.6786C67.1621 36.5321 68.306 36.7228 69.3487 37.2507C70.3758 37.7571 71.2656 38.528 72.0179 39.5635L79.7062 50.1455L77.3762 51.8383L74.4747 49.546L75.8371 47.8145C76.3735 49.3695 76.3807 50.8311 75.8585 52.1993C75.3207 53.546 74.383 54.7052 73.0454 55.677ZM71.5354 52.3737C72.4846 51.684 73.0938 50.9118 73.3628 50.0572C73.6161 49.1809 73.4528 48.3437 72.8728 47.5454C72.2772 46.7256 71.5314 46.3116 70.6354 46.3033C69.7395 46.2951 68.8168 46.6357 67.8676 47.3254C66.9184 48.0151 66.3092 48.7873 66.0402 49.6419C65.7712 50.4966 65.9345 51.3339 66.5301 52.1537C67.1101 52.9519 67.8559 53.3659 68.7675 53.3958C69.6635 53.4041 70.5861 53.0634 71.5354 52.3737Z" fill="white"/>
<path d="M110.205 29.1925L98.4672 31.6874L97.6854 28.0096L109.423 25.5146L110.205 29.1925Z" fill="white"/>
</svg>
